<?xml version="1.0" standalone="no"?><!DOCTYPE svg PUBLIC "-//W3C//DTD SVG 1.1//EN" "http://www.w3.org/Graphics/SVG/1.1/DTD/svg11.dtd"><svg t="1586963593413" class="icon" viewBox="0 0 1024 1024" version="1.1" xmlns="http://www.w3.org/2000/svg" p-id="2245" xmlns:xlink="http://www.w3.org/1999/xlink" width="100" height="100"><defs><style type="text/css"></style></defs><path d="M512 0C229.241762 0 0 229.212862 0 512 0 794.788944 229.241762 1024 512 1024c282.756432 0 511.998194-229.211056 511.998194-512C1024 229.212862 794.758238 0 512 0z m-51.21174 778.242167c-175.304436 0-317.423202-91.69815-317.423203-204.789162 0-113.089207 212.848514-291.695412 294.272888-291.695412 34.150191 0 101.14829 25.455051 54.271476 106.090106-3.27287 5.637211 105.728862-46.87862 165.301593-12.332866 59.608855 34.545753 0 90.059909 0 96.211892 0 6.151983 119.669264 6.151983 119.669264 101.72628-0.001806 113.092819-140.758683 204.789163-316.092018 204.789162zM710.270517 359.455735c-19.727529-23.423054-55.030088-17.939372-55.030089-17.939371-10.333382 0.092117-18.362027-7.120117-19.787134-16.848416-0.151722 0.96994-0.574378 1.91098-0.574378 2.90982v-5.725716c0 0.998839 0.422655 1.878468 0.574378 2.817703 1.425107-9.999231 9.54587-18.786489 19.727529-20.150185 0 0 42.727928-11.666372 79.755427 21.636703 37.002212 33.33378 21.851643 88.42528 21.851643 88.42528-1.57683 11.21301-12.544194 20.151991-23.939633 20.151991h-2.031997c-11.395439 0-18.029683-8.787258-14.876023-19.604706 0-0.037931 14.057806-32.219343-5.669723-55.673103z m140.336027 70.818253c-1.392595 15.576837-15.000653 28.272753-30.487178 30.030205 1.121662 0.121017 2.243325 0.334151 3.424592 0.33415h-6.970201c1.181268 0 2.364341-0.213134 3.545609-0.33415-15.027746-1.757452-25.1498-14.453368-22.969693-30.060911 0 0 16.729205-64.606664-23.968532-123.028832-40.728443-58.423975-128.212682-48.363332-128.212683-48.363333-15.542518 0-28.606904-11.424338-30.239726-26.695923-0.122823 1.060251-0.335957 2.120502-0.335957 3.211458v-6.394017c0 1.090957 0.211328 2.120502 0.335957 3.182559 1.632822-15.273392 14.482268-27.454536 30.331843-27.544847 0 0 91.09126-9.211719 158.940088 54.939777 67.845215 64.117178 46.605881 170.723864 46.605881 170.723864z" p-id="2246" fill="#FEC601"></path><path d="M430.09156 573.454811c0 11.303321 9.150308 20.455435 20.453629 20.455435 11.332221 0 20.486141-9.152114 20.486141-20.455435a20.460854 20.460854 0 0 0-20.486141-20.484335c-11.303321 0-20.453629 9.150308-20.453629 20.484335zM403.303519 640.637144c11.545355-9.54587 15.090964-29.759272 7.909435-45.121168-7.150823-15.392602-22.332097-20.121285-33.879258-10.54471-11.514649 9.544064-15.089157 29.757466-7.909436 45.119362 7.181529 15.394408 22.333904 20.123091 33.879259 10.546516z" p-id="2247" fill="#FEC601"></path><path d="M432.029633 451.818574c-112.000056 15.759265-194.484681 87.514945-184.272316 160.334489 10.243071 72.817738 109.33227 119.091274 221.332327 103.333815 112.028956-15.728559 194.515386-87.514945 184.303022-160.334489-10.241264-72.788838-109.33227-119.060568-221.363033-103.333815z m16.364349 243.848658c-66.636855 12.970462-129.363244-21.546392-140.180693-77.060547-10.788549-55.514155 34.486148-110.999411 101.092297-123.939167 66.636855-12.999361 129.39395 21.515686 140.182499 77.060547 10.754231 55.483449-34.489761 110.999411-101.094103 123.939167z" p-id="2248" fill="#FEC601"></path></svg>